<svg xmlns="http://www.w3.org/2000/svg" viewBox="0 0 100 100">
  <!-- Plume et Acte - Icône Notaire -->

  <!-- Cercle extérieur -->
  <circle cx="50" cy="50" r="48" fill="none" stroke="#0D5C63" stroke-width="2.5"/>

  <!-- Document/Parchemin -->
  <rect x="22" y="24" width="40" height="52" rx="3" fill="#ffffff" stroke="#0D5C63" stroke-width="2"/>

  <!-- Lignes du document -->
  <line x1="28" y1="36" x2="52" y2="36" stroke="#0D5C63" stroke-width="1.5" opacity="0.5"/>
  <line x1="28" y1="46" x2="56" y2="46" stroke="#0D5C63" stroke-width="1.5" opacity="0.5"/>
  <line x1="28" y1="56" x2="54" y2="56" stroke="#0D5C63" stroke-width="1.5" opacity="0.5"/>
  <line x1="28" y1="66" x2="46" y2="66" stroke="#0D5C63" stroke-width="1.5" opacity="0.5"/>

  <!-- Sceau bordeaux sur le document -->
  <circle cx="52" cy="70" r="7" fill="#8B2942"/>

  <!-- Plume d'oie -->
  <path d="M58 14 Q82 28 78 58 Q76 65 70 68 Q74 58 74 46 Q74 32 64 24 Q58 18 58 14 Z"
        fill="#0D5C63"/>
  <!-- Tige de la plume -->
  <path d="M58 14 L54 34 L58 32 L62 36 L58 14 Z" fill="#0D5C63"/>
  <!-- Pointe de la plume -->
  <path d="M54 34 L48 56 L51 52 L54 56 L58 34 Z" fill="#0D5C63"/>

</svg>
